<?xml version="1.0" standalone="no"?>
<!DOCTYPE svg PUBLIC "-//W3C//DTD SVG 20010904//EN"
 "http://www.w3.org/TR/2001/REC-SVG-20010904/DTD/svg10.dtd">
<svg version="1.0" xmlns="http://www.w3.org/2000/svg"
 width="439.000000pt" height="439.000000pt" viewBox="0 0 439.000000 439.000000"
 preserveAspectRatio="xMidYMid meet">
<metadata>
Created by potrace 1.14, written by Peter Selinger 2001-2017
</metadata>
<g transform="translate(0.000000,439.000000) scale(0.100000,-0.100000)"
fill="#000000" stroke="none">
<path d="M2213 2999 c-8 -8 -9 -18 -2 -31 8 -15 22 -18 77 -18 l67 0 -120
-120 -120 -120 -75 75 c-42 41 -82 75 -90 75 -9 0 -76 -61 -150 -135 -115
-115 -133 -138 -124 -153 23 -37 44 -25 162 92 l117 115 76 -74 c42 -41 82
-75 89 -75 8 0 73 59 147 132 l133 132 0 -55 c0 -61 17 -93 46 -87 18 3 19 13
19 128 l0 125 -120 3 c-83 2 -124 -1 -132 -9z"/>
<path d="M2630 2175 c-16 -20 -5 -62 19 -70 42 -13 72 25 51 65 -13 24 -52 27
-70 5z"/>
<path d="M1000 1935 l0 -235 35 0 35 0 0 119 c0 112 2 122 24 148 34 39 98 39
132 0 22 -26 24 -36 24 -148 l0 -119 35 0 35 0 0 108 c0 125 -12 175 -49 212
-47 48 -104 48 -193 2 -5 -2 -8 30 -8 72 l0 76 -35 0 -35 0 0 -235z"/>
<path d="M3762 2133 c-78 -38 -90 -159 -21 -217 24 -21 41 -26 84 -26 66 0
109 31 125 90 32 117 -79 207 -188 153z m133 -36 c34 -29 44 -91 21 -135 -29
-55 -114 -66 -163 -20 -44 41 -38 129 11 163 32 23 100 19 131 -8z"/>
<path d="M3770 2020 c0 -63 2 -70 19 -70 14 0 21 8 23 28 l4 27 14 -27 c9 -19
21 -28 37 -28 23 0 23 1 7 26 -13 19 -14 28 -5 37 17 17 13 55 -8 67 -11 5
-36 10 -55 10 l-36 0 0 -70z m80 20 c0 -5 -9 -10 -20 -10 -11 0 -20 5 -20 10
0 6 9 10 20 10 11 0 20 -4 20 -10z"/>
<path d="M540 1919 l0 -222 113 5 c125 5 173 22 220 78 67 79 60 229 -14 300
-49 46 -96 60 -211 60 l-108 0 0 -221z m239 145 c47 -28 74 -92 69 -160 -8
-97 -65 -144 -175 -144 l-63 0 0 166 0 167 69 -5 c41 -3 81 -13 100 -24z"/>
<path d="M2810 2095 c0 -38 -3 -45 -20 -45 -15 0 -20 -7 -20 -25 0 -18 5 -25
19 -25 18 0 20 -10 23 -125 4 -151 12 -165 102 -173 l56 -4 0 31 c0 29 -3 31
-34 31 -51 0 -57 15 -54 131 l3 104 43 3 c37 3 42 6 42 28 0 22 -4 24 -45 24
l-45 0 0 45 c0 45 0 45 -35 45 -35 0 -35 0 -35 -45z"/>
<path d="M3050 2095 c0 -38 -3 -45 -20 -45 -14 0 -20 -7 -20 -24 0 -15 7 -26
20 -29 19 -5 20 -14 20 -121 0 -106 2 -117 23 -142 18 -21 35 -28 75 -32 l52
-5 0 31 c0 28 -3 31 -37 34 l-38 3 0 115 0 115 38 3 c32 3 37 7 37 28 0 21 -4
24 -40 24 l-40 0 0 45 c0 45 0 45 -35 45 -35 0 -35 0 -35 -45z"/>
<path d="M1509 2051 c-104 -33 -149 -156 -96 -261 30 -61 76 -90 142 -90 39 0
61 6 89 25 l36 24 0 -24 c0 -22 4 -25 35 -25 l35 0 0 175 0 175 -35 0 c-28 0
-35 -4 -35 -20 0 -25 -4 -25 -38 0 -31 23 -96 33 -133 21z m133 -88 c34 -32
44 -79 28 -127 -37 -115 -193 -95 -207 25 -13 114 99 178 179 102z"/>
<path d="M1973 2049 c-18 -5 -35 -14 -38 -19 -9 -15 -25 -12 -25 5 0 10 -10
15 -30 15 l-30 0 0 -175 0 -175 30 0 30 0 0 105 c0 124 13 166 58 184 24 10
38 10 67 1 52 -17 65 -54 65 -185 l0 -105 30 0 30 0 0 131 c0 154 -12 186 -80
213 -45 18 -60 18 -107 5z"/>
<path d="M3364 2050 c-41 -13 -90 -68 -105 -119 -23 -78 10 -172 73 -211 48
-29 125 -27 172 5 l36 24 0 -24 c0 -22 4 -25 35 -25 l35 0 0 175 0 175 -35 0
c-28 0 -35 -4 -35 -20 0 -25 -4 -25 -38 0 -33 24 -96 33 -138 20z m110 -64
c43 -18 70 -74 63 -130 -15 -108 -152 -132 -202 -36 -30 59 -6 142 49 166 40
17 49 17 90 0z"/>
<path d="M2230 2043 c0 -5 28 -83 62 -175 l63 -168 41 0 41 0 63 163 c34 89
65 168 68 175 3 10 -5 13 -33 10 l-37 -3 -45 -130 c-25 -71 -49 -134 -53 -138
-4 -5 -29 55 -55 132 l-48 141 -33 0 c-19 0 -34 -3 -34 -7z"/>
<path d="M2630 1875 l0 -175 35 0 35 0 0 175 0 175 -35 0 -35 0 0 -175z"/>
</g>
</svg>
